<?xml version="1.0" standalone="no"?>
<!DOCTYPE svg PUBLIC "-//W3C//DTD SVG 20010904//EN"
 "http://www.w3.org/TR/2001/REC-SVG-20010904/DTD/svg10.dtd">
<svg version="1.0" xmlns="http://www.w3.org/2000/svg"
 width="700.000000pt" height="700.000000pt" viewBox="0 0 700.000000 700.000000"
 preserveAspectRatio="xMidYMid meet">
<metadata>
Created by potrace 1.14, written by Peter Selinger 2001-2017
</metadata>
<g transform="translate(0.000000,700.000000) scale(0.100000,-0.100000)"
fill="#000000" stroke="none">
<path d="M3180 6978 c-1074 -100 -2053 -701 -2633 -1616 -267 -421 -441 -902
-514 -1417 -26 -187 -26 -713 0 -900 114 -807 471 -1513 1044 -2066 496 -477
1128 -803 1793 -923 273 -50 638 -69 901 -47 1415 116 2614 1058 3055 2399 69
209 129 489 155 722 28 243 15 669 -27 925 -210 1276 -1101 2331 -2322 2749
-260 89 -549 150 -837 176 -130 12 -481 11 -615 -2z m605 -29 c802 -69 1540
-402 2117 -958 1264 -1216 1423 -3175 370 -4574 -530 -703 -1293 -1175 -2152
-1331 -230 -41 -342 -51 -615 -51 -264 0 -379 9 -595 46 -1419 244 -2553 1366
-2815 2786 -52 281 -70 652 -45 933 103 1148 767 2164 1785 2733 418 233 927
383 1425 420 107 8 415 6 525 -4z"/>
<path d="M3215 6670 c-775 -79 -1465 -409 -1996 -957 -251 -259 -428 -513
-589 -845 -94 -196 -159 -371 -210 -573 -80 -315 -105 -541 -97 -883 6 -252
22 -394 72 -617 258 -1154 1156 -2083 2300 -2380 258 -67 440 -93 710 -102
1507 -48 2838 969 3195 2441 131 536 114 1125 -47 1656 -57 190 -100 295 -198
495 -226 458 -534 829 -941 1136 -435 327 -912 525 -1469 609 -160 24 -575 35
-730 20z m657 -45 c865 -105 1623 -543 2149 -1241 321 -426 515 -892 602
-1444 18 -116 21 -178 21 -445 0 -336 -9 -433 -69 -699 -173 -771 -654 -1469
-1321 -1918 -873 -587 -1994 -698 -2962 -292 -1430 599 -2218 2153 -1852 3653
259 1060 1056 1918 2095 2255 260 84 482 125 810 150 93 7 402 -4 527 -19z"/>
<path d="M2504 6321 l-121 -57 38 -82 c21 -45 40 -82 43 -82 5 0 249 110 254
115 7 6 -72 165 -82 164 -6 0 -65 -26 -132 -58z m152 -38 l23 -51 -83 -40
c-124 -59 -119 -59 -144 -7 -12 25 -22 51 -22 58 0 13 178 98 195 93 5 -1 19
-25 31 -53z"/>
<path d="M4620 6227 c-9 -12 -33 -45 -53 -74 l-38 -51 118 -85 117 -84 54 75
c29 41 50 78 45 82 -14 13 -221 160 -225 160 -1 0 -10 -11 -18 -23z m128 -91
l81 -59 -32 -44 c-17 -25 -34 -46 -38 -49 -6 -3 -145 91 -173 117 -13 12 55
110 70 101 6 -4 47 -33 92 -66z"/>
<path d="M3885 6016 c-132 -41 -214 -146 -223 -282 -6 -94 15 -158 75 -224
112 -125 289 -146 421 -50 112 81 158 243 106 370 -63 150 -230 233 -379 186z"/>
<path d="M2363 5870 c-96 -20 -175 -80 -218 -167 -26 -50 -30 -69 -30 -143 0
-99 21 -153 85 -219 58 -60 112 -84 201 -89 102 -6 162 14 233 79 72 66 100
130 100 229 0 94 -26 158 -92 223 -76 74 -181 107 -279 87z"/>
<path d="M4762 5831 c-52 -33 -74 -77 -70 -141 3 -35 11 -66 23 -82 88 -119
276 -70 292 75 6 52 -20 108 -65 142 -40 29 -137 32 -180 6z m128 -101 c55
-55 -24 -135 -82 -83 -25 23 -23 68 4 87 30 21 54 20 78 -4z"/>
<path d="M3190 5548 c-47 -13 -76 -42 -96 -94 -42 -111 54 -227 173 -209 89
13 160 119 133 199 -12 38 -63 90 -103 105 -34 13 -60 13 -107 -1z m92 -115
c25 -23 23 -68 -4 -87 -31 -22 -54 -20 -78 6 -25 28 -26 52 0 78 24 24 57 26
82 3z"/>
<path d="M1662 5432 c-29 -9 -81 -59 -93 -89 -26 -70 1 -155 63 -194 43 -26
140 -23 180 6 45 34 71 90 65 142 -11 104 -109 165 -215 135z m100 -119 c38
-34 8 -95 -48 -95 -31 0 -54 25 -54 58 0 49 64 72 102 37z"/>
<path d="M1191 5313 c-17 -47 -30 -87 -29 -88 15 -12 264 -92 269 -87 10 11
62 162 58 166 -2 2 -63 24 -135 49 l-132 46 -31 -86z m167 7 c103 -37 101 -33
67 -114 -12 -29 -20 -36 -33 -31 -9 4 -55 20 -101 36 -46 16 -86 30 -88 32 -3
3 9 41 32 106 3 7 11 11 18 9 6 -3 54 -20 105 -38z"/>
<path d="M2536 5062 c-14 -42 -26 -82 -26 -88 0 -5 57 -30 127 -54 70 -25 130
-46 133 -48 7 -3 64 168 57 174 -5 5 -248 94 -258 94 -4 0 -19 -35 -33 -78z
m159 4 c100 -37 103 -43 72 -118 l-15 -36 -97 34 c-53 19 -101 36 -105 39 -11
7 30 115 44 114 6 0 52 -15 101 -33z"/>
<path d="M5015 5132 c-91 -15 -239 -105 -319 -194 -101 -111 -114 -167 -74
-326 11 -48 22 -88 22 -89 5 -7 140 29 187 50 70 31 176 129 215 199 26 48 29
61 28 138 -1 47 -10 117 -20 155 -16 60 -22 70 -39 67z m4 -59 c33 -127 39
-234 17 -287 -20 -49 -82 -114 -150 -158 -58 -37 -190 -87 -201 -76 -4 3 -3
21 0 40 5 28 15 39 48 55 44 22 146 104 161 130 4 9 -22 -8 -59 -36 -72 -55
-124 -86 -132 -77 -3 2 10 37 28 76 27 60 49 87 133 167 103 97 92 108 -18 18
-52 -42 -55 -43 -59 -22 -3 15 -5 12 -6 -11 -1 -34 -47 -106 -61 -97 -5 3 -12
24 -16 48 l-7 42 -8 -33 c-3 -18 -3 -50 2 -70 6 -30 3 -49 -16 -99 -14 -34
-25 -67 -26 -75 -2 -32 -29 92 -30 139 -1 72 30 134 107 210 68 67 132 108
209 135 69 24 73 23 84 -19z"/>
<path d="M3815 5042 c-66 -31 -121 -57 -122 -57 -6 -3 72 -165 79 -165 6 0
249 109 256 115 6 5 -74 164 -83 164 -5 0 -64 -26 -130 -57z m147 -36 l27 -54
-83 -40 c-128 -61 -122 -61 -147 -3 -11 28 -22 53 -23 57 -1 5 178 92 194 93
3 1 18 -23 32 -53z"/>
<path d="M5911 4895 c-70 -20 -111 -46 -160 -101 -129 -147 -84 -383 91 -480
48 -26 62 -29 148 -29 86 0 100 3 148 29 65 36 107 83 139 154 34 72 30 192
-7 266 -65 128 -223 199 -359 161z"/>
<path d="M1915 4893 c-47 -6 -133 -32 -140 -42 -7 -12 46 -148 79 -206 40 -68
145 -136 206 -134 19 1 14 5 -19 15 -62 19 -103 50 -139 103 -31 47 -92 183
-92 206 0 18 87 46 173 55 68 7 69 7 17 7 -30 0 -68 -2 -85 -4z"/>
<path d="M2083 4883 c9 -2 25 -2 35 0 9 3 1 5 -18 5 -19 0 -27 -2 -17 -5z"/>
<path d="M2148 4873 c7 -3 16 -2 19 1 4 3 -2 6 -13 5 -11 0 -14 -3 -6 -6z"/>
<path d="M2188 4863 c7 -3 16 -2 19 1 4 3 -2 6 -13 5 -11 0 -14 -3 -6 -6z"/>
<path d="M2094 4801 c11 -11 17 -23 15 -25 -2 -2 -29 0 -59 5 -30 5 -75 6
-100 3 -43 -7 -40 -8 54 -20 70 -10 103 -10 112 -3 16 13 10 31 -19 48 -22 14
-22 14 -3 -8z"/>
<path d="M2330 4772 c0 -4 4 -12 8 -17 5 -6 21 -39 36 -75 27 -64 27 -65 4
-44 -13 12 -43 34 -67 50 -24 15 -46 36 -50 47 -7 18 -7 18 -24 -1 -16 -17
-15 -20 30 -51 55 -39 47 -50 -37 -51 -45 -1 -52 -3 -36 -12 12 -6 45 -8 86
-5 66 5 68 5 89 -24 l22 -29 -26 -10 c-30 -11 -92 -26 -147 -35 -38 -6 -53
-25 -20 -25 31 0 143 30 191 51 l48 20 -33 90 c-19 49 -40 98 -46 109 -13 20
-28 27 -28 12z"/>
<path d="M1560 4538 c-113 -58 -122 -194 -19 -271 68 -50 182 -20 226 58 28
50 29 87 2 141 -39 81 -130 112 -209 72z m110 -108 c11 -11 20 -29 20 -40 0
-26 -34 -60 -62 -60 -50 0 -76 63 -41 102 21 24 58 23 83 -2z"/>
<path d="M3867 4537 c-54 -33 -77 -72 -77 -132 0 -160 196 -215 294 -82 29 39
29 125 0 163 -35 47 -70 67 -126 71 -43 3 -60 -1 -91 -20z m130 -113 c15 -24
15 -29 2 -53 -10 -18 -24 -27 -47 -29 -43 -4 -62 12 -62 52 0 41 16 56 57 56
24 0 37 -7 50 -26z"/>
<path d="M3644 4326 c-34 -12 -81 -34 -105 -48 -63 -37 -160 -128 -202 -190
-51 -73 -55 -120 -26 -248 l23 -102 46 5 c91 11 187 57 261 125 121 112 151
210 114 372 -8 36 -17 75 -20 88 -7 27 -14 27 -91 -2z m73 -61 c8 -27 16 -91
20 -141 5 -81 3 -97 -16 -137 -32 -66 -109 -133 -204 -177 -45 -20 -94 -40
-109 -44 -27 -6 -28 -5 -28 33 0 36 3 41 44 61 24 11 73 48 108 81 34 33 48
50 30 37 -19 -13 -61 -42 -94 -65 -68 -49 -82 -53 -72 -20 28 90 87 166 229
292 l30 26 -35 -17 c-19 -9 -57 -34 -84 -57 -38 -32 -50 -37 -57 -26 -6 10 -9
6 -9 -14 0 -31 -47 -100 -61 -91 -5 3 -9 20 -9 39 0 19 -5 37 -11 41 -7 4 -10
-18 -9 -72 1 -60 -4 -94 -21 -144 l-23 -65 -13 60 c-28 135 -9 201 86 296 70
69 138 116 204 140 76 27 88 23 104 -36z"/>
<path d="M3481 4144 c0 -11 3 -14 6 -6 3 7 2 16 -1 19 -3 4 -6 -2 -5 -13z"/>
<path d="M4673 4332 c-212 -76 -282 -334 -136 -501 150 -172 420 -137 520 67
24 48 28 70 28 137 0 90 -19 141 -80 213 -75 87 -221 124 -332 84z"/>
<path d="M792 4321 c-219 -76 -280 -353 -114 -519 64 -64 120 -87 217 -87 67
0 89 4 137 28 65 32 121 89 152 156 16 36 21 65 21 131 0 75 -4 91 -30 139
-77 140 -235 203 -383 152z"/>
<path d="M2825 4309 c-98 -12 -189 -80 -236 -175 -20 -40 -24 -64 -24 -134 0
-102 21 -156 85 -220 120 -120 308 -124 434 -9 72 66 100 130 100 229 0 96
-27 162 -95 225 -75 71 -160 97 -264 84z"/>
<path d="M5971 4081 c-28 -39 -51 -74 -51 -79 0 -5 37 -35 83 -67 45 -32 96
-69 113 -82 l31 -23 52 76 c29 42 49 79 45 84 -5 4 -52 38 -104 75 -52 37
-100 72 -106 77 -8 6 -28 -14 -63 -61z m147 -37 c42 -31 80 -60 85 -63 4 -4
-5 -23 -19 -42 -14 -18 -29 -41 -34 -49 -7 -12 -21 -6 -77 33 -37 26 -79 56
-92 66 l-24 18 32 47 c18 25 36 46 42 46 6 0 45 -25 87 -56z"/>
<path d="M5452 3973 c-81 -40 -113 -137 -71 -213 61 -108 207 -114 277 -9 20
28 23 44 20 92 -4 46 -10 63 -34 88 -54 58 -128 74 -192 42z m113 -109 c25
-25 16 -76 -17 -92 -57 -27 -108 31 -74 83 19 29 66 34 91 9z"/>
<path d="M1545 3957 c-2 -7 -16 -43 -30 -81 -14 -37 -25 -72 -25 -76 0 -5 24
-17 53 -28 131 -49 208 -74 213 -70 2 3 18 42 34 87 22 60 27 83 18 86 -227
82 -260 92 -263 82z m226 -103 c7 -4 -22 -98 -34 -111 -3 -2 -49 11 -103 30
-110 39 -113 43 -80 120 l15 37 97 -36 c53 -19 101 -37 105 -40z"/>
<path d="M3822 3889 c-140 -67 -134 -54 -78 -166 l31 -61 120 55 c66 30 123
58 128 62 7 7 -62 172 -72 170 -3 0 -61 -27 -129 -60z m144 -35 c14 -31 24
-58 22 -59 -9 -9 -183 -85 -193 -85 -12 0 -62 96 -54 105 4 4 189 92 197 94 2
1 14 -24 28 -55z"/>
<path d="M6324 3806 c-17 -8 -44 -31 -60 -51 -22 -30 -28 -48 -28 -90 -2 -161
216 -216 298 -76 38 65 17 157 -45 202 -40 28 -121 35 -165 15z m116 -111 c16
-20 16 -61 0 -80 -21 -26 -81 -16 -99 16 -13 24 -13 29 2 53 20 30 76 36 97
11z"/>
<path d="M3565 3587 c-135 -81 -169 -120 -180 -208 l-5 -44 13 47 c22 77 56
116 153 173 l41 24 -37 -70 c-22 -43 -50 -79 -71 -93 -19 -13 -43 -39 -53 -57
l-20 -34 39 33 c22 17 44 32 49 32 18 0 -3 -80 -30 -117 -19 -26 -22 -32 -8
-20 11 9 24 17 27 17 4 0 7 -30 8 -67 0 -38 6 -83 12 -100 10 -28 12 -10 12
115 0 141 1 150 29 210 16 34 32 62 36 62 10 0 17 -28 31 -135 6 -49 14 -92
16 -95 10 -9 -5 187 -18 228 -11 39 -11 44 11 67 13 14 27 25 30 25 11 0 57
-109 75 -175 8 -32 15 -89 15 -125 0 -121 -49 -187 -211 -286 -50 -30 -63 -34
-70 -23 -28 42 -52 99 -65 153 -12 54 -14 55 -9 15 4 -49 47 -172 70 -202 12
-17 19 -15 103 37 134 83 174 138 192 260 14 91 -2 194 -42 279 -20 39 -44 82
-54 94 l-19 22 -70 -42z"/>
<path d="M3145 3356 c-54 -24 -87 -70 -93 -125 -6 -62 9 -101 54 -140 112 -99
274 -1 272 164 -1 36 -3 46 -5 26 l-5 -35 -21 40 c-38 68 -132 101 -202 70z
m105 -116 c11 -11 20 -29 20 -40 0 -25 -34 -60 -58 -60 -32 0 -62 29 -62 60 0
56 60 80 100 40z"/>
<path d="M2165 3341 c-92 -24 -173 -91 -215 -176 -36 -75 -35 -190 3 -267 30
-62 83 -115 149 -150 36 -19 58 -23 133 -23 78 0 97 4 141 27 283 149 198 572
-119 593 -34 2 -75 1 -92 -4z"/>
<path d="M4938 3251 l-117 -67 45 -82 46 -83 31 20 c18 10 74 42 125 71 l93
52 -43 79 c-24 43 -47 79 -53 78 -5 0 -63 -31 -127 -68z m162 -42 l19 -36 -93
-52 c-51 -28 -96 -51 -99 -51 -8 0 -57 84 -57 98 0 6 42 33 93 61 103 56 97
57 137 -20z"/>
<path d="M1380 3203 c-17 -54 -33 -103 -35 -110 -5 -14 336 -127 346 -115 13
14 68 207 61 214 -7 6 -320 108 -333 108 -4 0 -22 -44 -39 -97z m204 15 c72
-23 132 -43 134 -44 5 -3 -39 -148 -47 -156 -11 -12 -293 81 -288 95 2 7 14
42 26 80 13 37 27 67 33 67 6 0 70 -19 142 -42z"/>
<path d="M3995 3161 c-51 -13 -112 -49 -151 -88 -149 -152 -102 -408 92 -504
69 -34 197 -34 266 0 58 28 122 91 150 145 30 57 36 177 13 245 -23 69 -99
152 -167 181 -57 24 -153 34 -203 21z"/>
<path d="M5683 3156 c-85 -27 -169 -110 -199 -200 -21 -60 -15 -176 10 -228
30 -61 93 -125 154 -155 115 -56 261 -31 356 62 45 44 82 120 91 186 14 95
-41 224 -120 284 -78 60 -196 80 -292 51z"/>
<path d="M5122 3023 c-41 -20 -69 -54 -84 -104 -32 -108 80 -219 191 -189 78
21 121 76 121 156 0 112 -126 188 -228 137z m112 -106 c27 -20 18 -77 -16 -96
-25 -14 -29 -14 -55 5 -34 26 -40 48 -19 79 18 28 61 33 90 12z"/>
<path d="M3071 2929 c-68 -26 -125 -49 -126 -51 -3 -3 55 -159 61 -167 7 -8
264 94 264 104 0 20 -57 159 -66 161 -5 1 -65 -20 -133 -47z m142 -38 c9 -27
17 -53 17 -59 0 -10 -197 -88 -204 -81 -3 2 -13 28 -24 57 l-21 53 22 9 c51
22 173 68 182 69 6 1 18 -21 28 -48z"/>
<path d="M1044 2786 c-132 -43 -216 -161 -216 -303 0 -203 189 -351 383 -300
81 22 110 39 162 97 59 66 80 129 75 223 -6 119 -65 209 -173 265 -60 30 -168
39 -231 18z"/>
<path d="M1760 2598 c-117 -60 -114 -220 6 -278 152 -74 301 121 186 244 -55
58 -120 70 -192 34z m114 -104 c36 -35 6 -104 -44 -104 -23 0 -60 37 -60 60 0
48 71 78 104 44z"/>
<path d="M2271 2489 c-89 -59 -176 -159 -221 -254 -55 -116 -56 -123 -12 -135
141 -37 171 -42 228 -37 153 12 306 169 353 361 7 27 8 52 4 56 -21 18 -164
50 -224 50 -61 0 -72 -3 -128 -41z m216 14 l73 -17 -71 -22 c-58 -18 -85 -21
-142 -17 -52 5 -68 3 -63 -5 4 -7 17 -12 29 -12 23 0 55 -16 47 -23 -37 -30
-74 -47 -102 -48 -18 -1 -25 -3 -15 -6 23 -6 22 -15 -9 -44 -28 -26 -84 -103
-84 -115 0 -4 40 33 89 82 60 62 106 99 144 117 66 31 107 43 107 30 0 -10
-52 -86 -100 -144 -19 -23 -27 -38 -18 -33 26 14 125 132 138 164 9 23 19 29
51 32 33 3 39 1 39 -15 0 -39 -77 -183 -129 -239 -66 -72 -118 -98 -197 -98
-51 0 -211 31 -235 45 -15 10 23 111 68 178 54 81 125 146 195 181 61 31 89
32 185 9z"/>
<path d="M3771 2460 c-101 -23 -155 -148 -98 -230 38 -57 71 -75 137 -75 44 0
66 5 86 21 44 32 66 68 71 116 12 107 -87 192 -196 168z m79 -120 c55 -55 -24
-136 -82 -83 -25 23 -23 68 4 87 30 21 54 20 78 -4z"/>
<path d="M4940 2341 c-54 -17 -90 -43 -142 -103 -90 -106 -87 -93 -42 -139 92
-94 223 -144 364 -137 105 4 155 32 249 138 l74 83 -34 29 c-40 34 -161 95
-204 103 -16 3 -5 -4 25 -15 57 -21 161 -88 167 -107 8 -22 -146 -171 -204
-199 -48 -24 -62 -26 -123 -21 -37 3 -92 16 -122 28 -61 26 -188 105 -188 117
0 4 14 16 30 26 30 17 32 17 73 -3 42 -20 207 -64 215 -57 2 2 -41 18 -95 35
-115 36 -135 47 -114 60 17 11 124 31 162 31 21 0 167 -28 231 -44 12 -3 1 5
-27 19 -27 14 -72 28 -99 31 l-50 7 30 24 29 25 -43 -22 c-30 -14 -58 -20 -90
-18 l-46 3 38 38 c22 20 36 37 32 37 -17 0 -63 -31 -90 -59 -17 -17 -37 -31
-45 -31 -9 -1 -40 -9 -68 -19 -29 -10 -53 -15 -53 -11 0 4 28 34 63 67 54 52
71 62 117 71 93 18 96 20 50 20 -25 0 -56 -3 -70 -7z"/>
<path d="M5093 2333 c9 -2 23 -2 30 0 6 3 -1 5 -18 5 -16 0 -22 -2 -12 -5z"/>
<path d="M5148 2323 c7 -3 16 -2 19 1 4 3 -2 6 -13 5 -11 0 -14 -3 -6 -6z"/>
<path d="M5666 2167 c-24 -34 -46 -67 -48 -74 -2 -6 48 -48 111 -93 105 -75
114 -80 126 -63 7 10 32 44 54 75 l41 57 -93 69 c-88 65 -129 92 -141 92 -3 0
-25 -28 -50 -63z m150 -38 c46 -33 84 -64 84 -68 0 -12 -59 -91 -68 -91 -8 0
-172 115 -175 123 -3 6 63 97 70 97 2 0 43 -27 89 -61z"/>
<path d="M1555 2068 c-27 -11 -79 -31 -114 -44 -36 -13 -69 -28 -74 -33 -10
-10 34 -142 53 -164 7 -8 254 83 260 96 6 14 -54 167 -65 166 -5 -1 -32 -10
-60 -21z m72 -73 c12 -30 17 -57 13 -60 -12 -8 -191 -75 -199 -75 -12 0 -46
113 -36 117 6 2 48 19 95 37 47 19 90 34 96 35 6 1 20 -24 31 -54z"/>
<path d="M3962 2004 c-18 -48 -31 -88 -30 -89 3 -1 65 -27 254 -101 9 -4 80
163 72 171 -1 2 -57 24 -123 50 -66 26 -125 49 -130 51 -6 3 -25 -35 -43 -82z
m166 1 c102 -41 99 -36 63 -117 l-16 -36 -100 40 c-55 22 -101 41 -103 42 -7
8 43 116 52 113 6 -3 53 -22 104 -42z"/>
<path d="M2897 2046 c-136 -51 -214 -173 -205 -320 8 -117 71 -212 176 -263
47 -23 70 -28 132 -27 93 0 155 26 222 91 150 148 113 396 -74 498 -43 24 -67
29 -133 32 -52 2 -93 -2 -118 -11z"/>
<path d="M2345 1833 c-66 -26 -122 -48 -125 -50 -5 -5 42 -141 55 -160 9 -12
32 -6 142 37 l131 51 -32 81 c-17 45 -36 83 -41 84 -6 2 -64 -18 -130 -43z
m142 -49 l22 -55 -22 -9 c-125 -48 -183 -70 -188 -70 -8 0 -44 108 -38 114 7
7 182 75 194 75 6 1 20 -24 32 -55z"/>
<path d="M4570 1707 c-139 -93 -64 -300 103 -284 60 5 95 30 125 88 39 74 18
145 -58 197 -46 31 -124 31 -170 -1z m125 -102 c30 -29 31 -49 5 -75 -22 -22
-51 -26 -81 -10 -28 15 -26 74 3 94 31 22 45 20 73 -9z"/>
<path d="M4945 1375 c-60 -36 -114 -66 -119 -68 -11 -4 79 -163 91 -160 4 1
61 31 126 68 l117 66 -37 67 c-41 75 -53 92 -62 91 -3 0 -55 -29 -116 -64z
m148 -36 l26 -46 -93 -51 c-51 -29 -97 -52 -102 -52 -5 0 -21 23 -36 50 l-26
51 21 13 c67 42 173 94 178 88 3 -4 17 -28 32 -53z"/>
<path d="M3983 1372 c-107 -38 -180 -111 -209 -210 -57 -190 79 -385 277 -400
220 -16 387 190 325 399 -48 164 -238 266 -393 211z"/>
<path d="M2182 1036 c-18 -45 -32 -84 -32 -88 0 -7 260 -112 264 -107 1 2 12
28 24 57 15 36 19 59 13 75 -8 20 -10 19 -25 -17 -9 -21 -16 -41 -16 -45 0 -3
-4 -12 -9 -19 -6 -10 -28 -5 -102 24 -52 20 -97 40 -102 44 -9 8 24 101 39
107 6 2 51 -12 100 -31 99 -41 104 -42 104 -22 0 8 -30 26 -72 42 -40 15 -91
35 -113 44 l-41 17 -32 -81z"/>
<path d="M3004 869 c-45 -13 -100 -78 -109 -127 -14 -82 46 -162 133 -178 74
-14 161 40 181 113 22 77 -28 165 -108 192 -39 13 -54 13 -97 0z m89 -116 c37
-43 15 -103 -39 -103 -29 0 -64 33 -64 60 0 49 71 78 103 43z"/>
</g>
</svg>
